<svg width="18" height="18" viewBox="0 0 18 18" fill="none" xmlns="http://www.w3.org/2000/svg">
<path fill-rule="evenodd" clip-rule="evenodd" d="M9.00005 0.0416718C5.43321 0.0416718 2.54172 2.93317 2.54172 6.50001V7.08676C2.54172 7.66753 2.36981 8.2353 2.04766 8.71853L1.09049 10.1543C-0.0204229 11.8207 0.827667 14.0857 2.75983 14.6126C3.3895 14.7843 4.0245 14.9296 4.66317 15.0484L4.66475 15.0527C5.30558 16.7626 7.01834 17.9583 9 17.9583C10.9817 17.9583 12.6944 16.7626 13.3352 15.0527L13.3368 15.0484C13.9755 14.9296 14.6106 14.7844 15.2403 14.6126C17.1724 14.0857 18.0205 11.8207 16.9096 10.1543L15.9524 8.71853C15.6303 8.2353 15.4584 7.66753 15.4584 7.08676V6.50001C15.4584 2.93317 12.5669 0.0416718 9.00005 0.0416718ZM11.8137 15.2808C9.9446 15.5041 8.05539 15.5041 6.18626 15.2808C6.77872 16.1321 7.8092 16.7083 9 16.7083C10.1908 16.7083 11.2213 16.1321 11.8137 15.2808ZM3.79172 6.50001C3.79172 3.62352 6.12357 1.29167 9.00005 1.29167C11.8765 1.29167 14.2084 3.62352 14.2084 6.50001V7.08676C14.2084 7.91431 14.4533 8.72334 14.9124 9.4119L15.8696 10.8477C16.5072 11.8041 16.0204 13.1042 14.9114 13.4067C11.0412 14.4622 6.95893 14.4622 3.08872 13.4067C1.9797 13.1042 1.49291 11.8041 2.13055 10.8477L3.08772 9.4119C3.54676 8.72334 3.79172 7.91431 3.79172 7.08676V6.50001Z" fill="#F1EEE3"/>
</svg>
