<svg width="265" height="263" viewBox="0 0 265 263" fill="none" xmlns="http://www.w3.org/2000/svg">
<path d="M144.531 250.418C210.788 243.807 259.113 185.07 252.469 119.224C245.824 53.3784 186.725 5.35898 120.469 11.9696C54.2118 18.5802 5.88666 77.3176 12.5314 143.163C19.1762 209.009 78.2746 257.028 144.531 250.418Z" fill="url(#paint0_linear_2_399)"/>
<path d="M132.522 252.508C108.367 252.508 84.7549 245.39 64.6709 232.053C44.5868 218.717 28.9332 199.762 19.6895 177.584C10.4459 155.407 8.02729 131.003 12.7397 107.46C17.4521 83.9165 29.0837 62.2904 46.1638 45.3165C63.2439 28.3427 85.0052 16.7833 108.696 12.1002C132.387 7.41712 156.943 9.82062 179.259 19.0068C201.575 28.193 220.649 43.7493 234.069 63.7085C247.489 83.6677 254.651 107.133 254.651 131.138C254.623 163.319 241.747 194.173 218.85 216.929C195.952 239.684 164.904 252.48 132.522 252.508ZM132.522 12.8639C108.973 12.8639 85.9526 19.8037 66.3721 32.8056C46.7916 45.8075 31.5304 64.2876 22.5185 85.9091C13.5066 107.53 11.1487 131.322 15.7429 154.275C20.3372 177.228 31.6772 198.312 48.329 214.861C64.9809 231.409 86.1966 242.678 109.293 247.244C132.39 251.81 156.331 249.467 178.087 240.511C199.844 231.555 218.44 216.388 231.523 196.93C244.606 177.471 251.589 154.594 251.589 131.191C251.552 99.82 238.995 69.7447 216.674 47.5622C194.353 25.3797 164.089 12.9011 132.522 12.8639Z" fill="#231F20"/>
<path opacity="0.5" d="M153.043 180.976C180.714 169.71 193.955 138.284 182.617 110.786C171.28 83.2877 139.658 70.1293 111.988 81.396C84.3175 92.6627 71.0768 124.088 82.414 151.586C93.7512 179.085 125.373 192.243 153.043 180.976Z" fill="black"/>
<path opacity="0.6" d="M132.522 218.084C115.225 218.084 98.3153 212.986 83.933 203.435C69.5507 193.885 58.3413 180.31 51.7226 164.428C45.1038 148.546 43.373 131.07 46.7489 114.21C50.1248 97.3507 58.4559 81.8646 70.6885 69.7105C82.921 57.5564 98.5057 49.2803 115.472 45.9288C132.437 42.5772 150.022 44.3009 166.002 50.8817C181.982 57.4625 195.64 68.6049 205.247 82.8997C214.855 97.1946 219.981 114 219.977 131.19C219.949 154.23 210.726 176.318 194.33 192.609C177.935 208.899 155.707 218.061 132.522 218.084ZM132.522 45.545C115.477 45.5415 98.8127 50.5615 84.638 59.9702C70.4633 69.3789 59.4146 82.7536 52.8891 98.4028C46.3635 114.052 44.6544 131.273 47.9777 147.888C51.301 164.502 59.5075 179.764 71.5594 191.744C83.6113 203.723 98.9672 211.882 115.685 215.188C132.403 218.494 149.732 216.799 165.48 210.317C181.229 203.836 194.69 192.858 204.16 178.774C213.631 164.689 218.685 148.13 218.685 131.19C218.662 108.486 209.577 86.7177 193.424 70.6617C177.271 54.6057 155.369 45.5729 132.522 45.545Z" fill="#231F20"/>
<path opacity="0.6" d="M132.522 199.404C118.947 199.404 105.676 195.403 94.388 187.908C83.1002 180.413 74.3024 169.759 69.1072 157.295C63.912 144.83 62.5526 131.115 65.2011 117.883C67.8496 104.651 74.387 92.4963 83.9865 82.9565C93.586 73.4167 105.816 66.92 119.131 64.2879C132.446 61.6559 146.248 63.0067 158.79 68.1696C171.332 73.3326 182.052 82.0757 189.595 93.2933C197.137 104.511 201.163 117.699 201.163 131.191C201.139 149.275 193.9 166.612 181.032 179.399C168.165 192.187 150.72 199.381 132.522 199.404ZM132.522 64.2085C119.191 64.205 106.158 68.1305 95.0715 75.4885C83.9851 82.8464 75.3434 93.3064 70.2392 105.545C65.1351 117.785 63.7978 131.253 66.3965 144.247C68.9952 157.242 75.4131 169.179 84.8386 178.548C94.2641 187.917 106.274 194.299 119.349 196.884C132.424 199.47 145.977 198.145 158.294 193.076C170.611 188.007 181.139 179.421 188.546 168.406C195.952 157.39 199.906 144.439 199.906 131.191C199.887 113.435 192.782 96.4109 180.15 83.8539C167.518 71.2969 150.39 64.2318 132.522 64.2085Z" fill="#231F20"/>
<path d="M149.868 131.19C149.868 134.604 148.85 137.941 146.941 140.779C145.032 143.617 142.319 145.829 139.145 147.134C135.972 148.44 132.479 148.78 129.111 148.113C125.742 147.446 122.648 145.801 120.221 143.386C117.793 140.971 116.141 137.894 115.473 134.546C114.805 131.198 115.151 127.728 116.468 124.575C117.785 121.422 120.013 118.728 122.871 116.834C125.729 114.94 129.087 113.931 132.522 113.935C134.802 113.935 137.059 114.381 139.164 115.249C141.27 116.116 143.183 117.387 144.794 118.99C146.405 120.592 147.682 122.495 148.553 124.588C149.424 126.682 149.871 128.925 149.868 131.19Z" fill="#D9DADC"/>
<path opacity="0.6" d="M132.522 235.938C111.671 235.942 91.2863 229.8 73.9472 218.289C56.6082 206.779 43.0934 190.417 35.1122 171.273C27.131 152.129 25.0418 131.063 29.1089 110.739C33.176 90.4146 43.2167 71.7456 57.9611 57.0929C72.7055 42.4402 91.4913 32.4619 111.943 28.4201C132.394 24.3782 153.592 26.4544 172.856 34.386C192.119 42.3176 208.584 55.7483 220.166 72.9796C231.748 90.2108 237.929 110.469 237.925 131.191C237.892 158.961 226.777 185.585 207.017 205.222C187.257 224.859 160.467 235.906 132.522 235.938ZM132.522 27.9734C111.98 27.9734 91.8994 34.0269 74.8192 45.3686C57.7391 56.7102 44.4267 72.8306 36.5656 91.6911C28.7044 110.552 26.6476 131.305 30.6551 151.327C34.6627 171.349 44.5547 189.741 59.0802 204.176C73.6057 218.611 92.1123 228.442 112.26 232.424C132.407 236.407 153.291 234.363 172.269 226.551C191.248 218.739 207.469 205.509 218.881 188.535C230.294 171.561 236.385 151.605 236.385 131.191C236.357 103.824 225.406 77.5868 205.934 58.2358C186.462 38.8849 160.06 28.0013 132.522 27.9734Z" fill="#231F20"/>
<defs>
<linearGradient id="paint0_linear_2_399" x1="192.817" y1="234.95" x2="73.3317" y2="26.7397" gradientUnits="userSpaceOnUse">
<stop offset="0.1" stop-color="#262626"/>
<stop offset="0.35" stop-color="#434343"/>
<stop offset="0.5" stop-color="#505050"/>
<stop offset="0.64" stop-color="#3D3B3C"/>
<stop offset="0.79" stop-color="#252223"/>
<stop offset="1"/>
</linearGradient>
</defs>
</svg>
