<svg width="25" height="25" viewBox="0 0 25 25" fill="none" xmlns="http://www.w3.org/2000/svg">
<path d="M22.5 9.02V4.48C22.5 3.07 21.86 2.5 20.27 2.5H16.23C14.64 2.5 14 3.07 14 4.48V9.01C14 10.43 14.64 10.99 16.23 10.99H20.27C21.86 11 22.5 10.43 22.5 9.02Z" fill="#E06065"/>
<path d="M22.5 20.27V16.23C22.5 14.64 21.86 14 20.27 14H16.23C14.64 14 14 14.64 14 16.23V20.27C14 21.86 14.64 22.5 16.23 22.5H20.27C21.86 22.5 22.5 21.86 22.5 20.27Z" fill="#E06065"/>
<path d="M11 9.02V4.48C11 3.07 10.36 2.5 8.77 2.5H4.73C3.14 2.5 2.5 3.07 2.5 4.48V9.01C2.5 10.43 3.14 10.99 4.73 10.99H8.77C10.36 11 11 10.43 11 9.02Z" fill="#E06065"/>
<path d="M11 20.27V16.23C11 14.64 10.36 14 8.77 14H4.73C3.14 14 2.5 14.64 2.5 16.23V20.27C2.5 21.86 3.14 22.5 4.73 22.5H8.77C10.36 22.5 11 21.86 11 20.27Z" fill="#E06065"/>
</svg>
