<svg width="17" height="18" viewBox="0 0 17 18" fill="none" xmlns="http://www.w3.org/2000/svg">
<path d="M8.50002 0.666656C3.90002 0.666656 0.166687 4.39999 0.166687 8.99999C0.166687 13.6 3.90002 17.3333 8.50002 17.3333C13.1 17.3333 16.8334 13.6 16.8334 8.99999C16.8334 4.39999 13.1 0.666656 8.50002 0.666656ZM12.6667 13.5583C11.2417 13.5583 9.90835 12.9417 8.84169 11.8C7.63335 12.8917 6.05835 13.5583 4.33335 13.5583C3.99169 13.5583 3.70835 13.275 3.70835 12.9333C3.70835 12.5917 3.99169 12.3083 4.33335 12.3083C7.22502 12.3083 9.61669 10.0167 9.92502 7.08332H8.50002H4.34169C4.00002 7.08332 3.71669 6.79999 3.71669 6.45832C3.71669 6.11666 4.00002 5.84166 4.34169 5.84166H7.87502V5.06666C7.87502 4.72499 8.15835 4.44166 8.50002 4.44166C8.84169 4.44166 9.12502 4.72499 9.12502 5.06666V5.84166H10.5334C10.55 5.84166 10.5667 5.83332 10.5834 5.83332C10.6 5.83332 10.6167 5.84166 10.6334 5.84166H12.6584C13 5.84166 13.2834 6.12499 13.2834 6.46666C13.2834 6.80832 13 7.09166 12.6584 7.09166H11.175C11.05 8.51666 10.5167 9.82499 9.70002 10.8917C10.5334 11.8167 11.575 12.3167 12.6667 12.3167C13.0084 12.3167 13.2917 12.6 13.2917 12.9417C13.2917 13.2833 13.0084 13.5583 12.6667 13.5583Z" fill="#E06065"/>
</svg>
