<svg width="21" height="20" viewBox="0 0 21 20" fill="none" xmlns="http://www.w3.org/2000/svg">
<path d="M16.4333 7.60001C16.1083 7.60001 15.85 7.85834 15.85 8.18334V9.50001C15.85 12.45 13.45 14.85 10.5 14.85C7.55 14.85 5.15 12.45 5.15 9.50001V8.17501C5.15 7.85001 4.89167 7.59167 4.56667 7.59167C4.24167 7.59167 3.98334 7.85001 3.98334 8.17501V9.49168C3.98334 12.8833 6.59167 15.675 9.91667 15.975V17.75C9.91667 18.075 10.175 18.3333 10.5 18.3333C10.825 18.3333 11.0833 18.075 11.0833 17.75V15.975C14.4 15.6833 17.0167 12.8833 17.0167 9.49168V8.17501C17.0083 7.85834 16.75 7.60001 16.4333 7.60001Z" fill="#E06065"/>
<path d="M10.5 1.66666C8.46665 1.66666 6.81665 3.31666 6.81665 5.34999V9.61666C6.81665 11.65 8.46665 13.3 10.5 13.3C12.5333 13.3 14.1833 11.65 14.1833 9.61666V5.34999C14.1833 3.31666 12.5333 1.66666 10.5 1.66666ZM11.5917 7.45832C11.5333 7.67499 11.3417 7.81666 11.125 7.81666C11.0833 7.81666 11.0417 7.80832 11 7.79999C10.675 7.70832 10.3333 7.70832 10.0083 7.79999C9.74165 7.87499 9.48332 7.71666 9.41665 7.45832C9.34165 7.19999 9.49998 6.93332 9.75832 6.86666C10.25 6.73332 10.7667 6.73332 11.2583 6.86666C11.5083 6.93332 11.6583 7.19999 11.5917 7.45832ZM12.0333 5.84166C11.9583 6.04166 11.775 6.15832 11.575 6.15832C11.5167 6.15832 11.4667 6.14999 11.4083 6.13332C10.825 5.91666 10.175 5.91666 9.59165 6.13332C9.34165 6.22499 9.05832 6.09166 8.96665 5.84166C8.87498 5.59166 9.00832 5.30832 9.25832 5.22499C10.0583 4.93332 10.9417 4.93332 11.7417 5.22499C11.9917 5.31666 12.125 5.59166 12.0333 5.84166Z" fill="#E06065"/>
</svg>
