<svg width="17" height="18" viewBox="0 0 17 18" fill="none" xmlns="http://www.w3.org/2000/svg">
<path d="M9.94165 1.92501L11.4083 4.85835C11.6083 5.26668 12.1417 5.65835 12.5917 5.73335L15.25 6.17501C16.95 6.45835 17.35 7.69168 16.125 8.90835L14.0583 10.975C13.7083 11.325 13.5167 12 13.625 12.4833L14.2167 15.0417C14.6833 17.0667 13.6083 17.85 11.8167 16.7917L9.32499 15.3167C8.87498 15.05 8.13332 15.05 7.67499 15.3167L5.18332 16.7917C3.39999 17.85 2.31665 17.0583 2.78332 15.0417L3.37499 12.4833C3.48332 12 3.29165 11.325 2.94165 10.975L0.874985 8.90835C-0.341681 7.69168 0.0499855 6.45835 1.74999 6.17501L4.40832 5.73335C4.84999 5.65835 5.38332 5.26668 5.58332 4.85835L7.04999 1.92501C7.84999 0.333346 9.14999 0.333346 9.94165 1.92501Z" fill="#E06065"/>
</svg>
