<svg width="245" height="52" viewBox="0 0 245 52" fill="none" xmlns="http://www.w3.org/2000/svg">
<g clip-path="url(#clip0_227_89)">
<path d="M50.2356 40.8933C49.9656 38.345 49.8262 35.799 49.726 33.2435C49.6694 31.9693 49.6563 30.6951 49.6171 29.4185L49.5823 25.5936L49.6171 21.7687C49.6519 20.4945 49.665 19.2227 49.726 17.9437C49.8218 15.3954 49.9656 12.8494 50.2356 10.2939C50.51 12.8398 50.6711 15.3858 50.7452 17.9437C50.8061 19.2179 50.8192 20.4897 50.8541 21.7687L50.8889 25.5936L50.8541 29.4185C50.8192 30.6927 50.8061 31.9669 50.7452 33.2435C50.6493 35.799 50.5056 38.345 50.2356 40.8933Z" fill="#191815"/>
<path d="M52.9665 35.4356C52.6921 33.7981 52.5309 32.1605 52.4569 30.523C52.3959 29.7054 52.3828 28.8854 52.348 28.0679L52.3132 25.6103L52.3436 23.1552C52.3828 22.3352 52.3915 21.5177 52.4525 20.6977C52.5483 19.0601 52.6921 17.425 52.9665 15.7874C53.2365 17.425 53.402 19.0601 53.4761 20.6977C53.537 21.5177 53.5457 22.3352 53.5849 23.1552L53.6155 25.6103L53.5806 28.0679C53.5457 28.8854 53.5327 29.7054 53.4717 30.523C53.3759 32.1605 53.2365 33.7981 52.9665 35.4356Z" fill="#191815"/>
<path d="M63.877 44.8259C63.6244 41.6225 63.4546 38.4199 63.3675 35.2181C63.3108 33.6164 63.2978 32.0147 63.2586 30.4154L63.2237 25.6103L63.2586 20.8077C63.2934 19.206 63.3065 17.6043 63.3675 16.005C63.4546 12.8016 63.6244 9.59901 63.877 6.39722C64.1296 9.6006 64.2995 12.8032 64.3866 16.005C64.4476 17.6043 64.4607 19.206 64.4955 20.8077L64.5303 25.6103L64.4955 30.4154C64.4607 32.0147 64.4476 33.6164 64.3866 35.2181C64.2995 38.4199 64.1296 41.6225 63.877 44.8259Z" fill="#191815"/>
<path d="M72.061 40.8933C71.791 38.3474 71.6516 35.799 71.5558 33.2435C71.4948 31.9693 71.4817 30.6951 71.4469 29.4185L71.4077 25.5936L71.4425 21.7687C71.4817 20.4945 71.4905 19.2227 71.5514 17.9437C71.6472 15.3954 71.791 12.8494 72.061 10.2939C72.3354 12.8398 72.4748 15.3858 72.5707 17.9437C72.6316 19.2179 72.6447 20.4897 72.6795 21.7687L72.7144 25.5936L72.6795 29.4185C72.6447 30.6927 72.6316 31.9669 72.5707 33.2435C72.4748 35.799 72.3311 38.3474 72.061 40.8933Z" fill="#191815"/>
<path d="M91.1512 35.0579C90.8811 33.4825 90.7157 31.9095 90.6416 30.3341C90.5807 29.5476 90.5676 28.7587 90.5327 27.9722L90.4979 25.6103L90.5327 23.2484C90.5676 22.4619 90.5807 21.6754 90.6416 20.8865C90.7375 19.3135 90.8768 17.7381 91.1512 16.1651C91.4212 17.7381 91.5868 19.3135 91.6608 20.8865C91.7218 21.6754 91.7348 22.4619 91.7697 23.2484L91.8045 25.6103L91.7653 27.9722C91.7305 28.7587 91.7174 29.5476 91.6564 30.3341C91.5606 31.9095 91.4212 33.4825 91.1512 35.0579Z" fill="#191815"/>
<path d="M47.509 35.4356C47.239 33.7981 47.0735 32.1605 46.9994 30.523C46.9384 29.7054 46.9254 28.8854 46.8905 28.0679L46.8557 25.6103L46.8905 23.1552C46.9254 22.3352 46.9384 21.5177 46.9994 20.6977C47.0952 19.0601 47.2346 17.425 47.509 15.7874C47.7791 17.425 47.9446 19.0601 48.0187 20.6977C48.0796 21.5177 48.0883 22.3352 48.1275 23.1552L48.1624 25.6103L48.1232 28.0679C48.0883 28.8854 48.0753 29.7054 48.0143 30.523C47.9185 32.1605 47.7791 33.7981 47.509 35.4356Z" fill="#191815"/>
<path d="M55.6931 33.4324C55.423 32.1271 55.2575 30.8242 55.1834 29.5213C55.1225 28.8687 55.1094 28.2185 55.0746 27.5658L55.0397 25.6103L55.0746 23.6549C55.1094 23.0046 55.1225 22.352 55.1834 21.7017C55.2793 20.3965 55.4187 19.0936 55.6931 17.7907C55.9631 19.0936 56.1286 20.3965 56.2026 21.7017C56.2636 22.352 56.2767 23.0046 56.3115 23.6549L56.3464 25.6103L56.3115 27.5658C56.2723 28.2185 56.2592 28.8687 56.2026 29.5213C56.1068 30.8242 55.9631 32.1271 55.6931 33.4324Z" fill="#191815"/>
<path d="M44.7825 33.4324C44.5124 32.1271 44.373 30.8242 44.2772 29.5213C44.2162 28.8687 44.2032 28.2185 44.1683 27.5658L44.1292 25.6103L44.164 23.6549C44.2032 23.0046 44.2119 22.352 44.2729 21.7017C44.3687 20.3965 44.5124 19.0936 44.7825 17.7907C45.0569 19.0936 45.218 20.3965 45.2921 21.7017C45.3531 22.352 45.3661 23.0046 45.401 23.6549L45.4358 25.6103L45.401 27.5658C45.3661 28.2185 45.3531 28.8687 45.2921 29.5213C45.1919 30.8242 45.0482 32.1271 44.7825 33.4324Z" fill="#191815"/>
<path d="M39.325 33.4324C39.0506 32.1271 38.8894 30.8242 38.8154 29.5213C38.7544 28.8687 38.7414 28.2185 38.7065 27.5658L38.6716 25.6103L38.7021 23.6549C38.7413 23.0046 38.7501 22.352 38.811 21.7017C38.9069 20.3965 39.0506 19.0936 39.325 17.7907C39.595 19.0936 39.7605 20.3965 39.8346 21.7017C39.8955 22.352 39.9043 23.0046 39.9435 23.6549L39.9783 25.6103L39.9391 27.5658C39.9043 28.2185 39.8912 28.8687 39.8302 29.5213C39.7344 30.8242 39.595 32.1271 39.325 33.4324Z" fill="#191815"/>
<path d="M33.8676 33.4324C33.5975 32.1271 33.432 30.8242 33.358 29.5213C33.297 28.8687 33.284 28.2185 33.2491 27.5658L33.2142 25.6103L33.2491 23.6549C33.284 23.0046 33.297 22.352 33.358 21.7017C33.4538 20.3965 33.5932 19.0936 33.8676 17.7907C34.1376 19.0936 34.3031 20.3965 34.3772 21.7017C34.4382 22.352 34.4469 23.0046 34.4861 23.6549L34.5209 25.6103L34.4817 27.5658C34.4469 28.2185 34.4338 28.8687 34.3728 29.5213C34.277 30.8242 34.1376 32.1271 33.8676 33.4324Z" fill="#191815"/>
<path d="M36.5941 37.5083C36.324 35.5265 36.1847 33.5423 36.0889 31.5605C36.0279 30.5684 36.0148 29.5763 35.9756 28.5842L35.9407 25.6103L35.9756 22.6365C36.0105 21.6444 36.0235 20.6547 36.0845 19.6626C36.1803 17.6784 36.324 15.6966 36.5941 13.7124C36.8685 15.6966 37.0296 17.6784 37.1037 19.6626C37.1647 20.6547 37.1777 21.6444 37.2126 22.6365L37.2474 25.6103L37.2126 28.5842C37.1777 29.5763 37.1647 30.5684 37.1037 31.5605C37.0079 33.5447 36.8641 35.5265 36.5941 37.5083Z" fill="#191815"/>
<path d="M28.4101 35.0579C28.1401 33.4825 27.9745 31.9095 27.9005 30.3341C27.8395 29.5476 27.8264 28.7587 27.7916 27.9722L27.7568 25.6103L27.7916 23.2484C27.8264 22.4619 27.8395 21.6754 27.9005 20.8865C27.9963 19.3135 28.1357 17.7381 28.4101 16.1651C28.6801 17.7381 28.8238 19.3135 28.9197 20.8865C28.9806 21.6754 28.9937 22.4619 29.0285 23.2484L29.0634 25.6103L29.0285 27.9722C28.9937 28.7587 28.9763 29.5476 28.9197 30.3341C28.8238 31.9095 28.6671 33.4825 28.4101 35.0579Z" fill="#191815"/>
<path d="M61.1505 41.3715C60.8804 38.7418 60.7367 36.1122 60.6409 33.4825C60.5799 32.1701 60.5669 30.8529 60.532 29.5429L60.4971 25.6032L60.532 21.6635C60.5669 20.351 60.5799 19.0338 60.6409 17.7238C60.7367 15.0942 60.8761 12.4645 61.1505 9.83487C61.4205 12.4645 61.586 15.0942 61.6601 17.7238C61.721 19.0362 61.7298 20.3534 61.769 21.6635L61.8038 25.6032L61.7646 29.5429C61.7298 30.8577 61.7167 32.1725 61.6557 33.4825C61.5599 36.117 61.4205 38.7442 61.1505 41.3715Z" fill="#191815"/>
<path d="M66.6036 33.4634C66.3335 32.1534 66.1941 30.8457 66.0983 29.5357C66.0373 28.883 66.0243 28.228 65.9894 27.573L65.9546 25.6103L65.9851 23.6477C66.0243 22.9926 66.033 22.34 66.094 21.685C66.1898 20.3773 66.3335 19.0673 66.6036 17.7596C66.878 19.0673 67.0391 20.3773 67.1175 21.685C67.1785 22.34 67.1872 22.9926 67.2264 23.6477L67.2569 25.6103L67.2221 27.573C67.1872 28.228 67.1741 28.883 67.1132 29.5357C67.0173 30.8457 66.878 32.1534 66.6036 33.4634Z" fill="#191815"/>
<path d="M80.2451 33.4634C79.975 32.1534 79.8356 30.8457 79.7398 29.5357C79.6788 28.883 79.6658 28.228 79.6309 27.573L79.5917 25.6103L79.6266 23.6477C79.6658 22.9926 79.6745 22.34 79.7354 21.685C79.8313 20.3773 79.975 19.0673 80.2451 17.7596C80.5195 19.0673 80.6806 20.3773 80.759 21.685C80.8156 22.34 80.8287 22.9926 80.8679 23.6477L80.8984 25.6103L80.8635 27.573C80.8287 28.228 80.8156 28.883 80.7546 29.5357C80.6588 30.8457 80.5195 32.1534 80.2451 33.4634Z" fill="#191815"/>
<path d="M88.4203 33.4634C88.1503 32.1534 88.0109 30.8457 87.9151 29.5357C87.8541 28.883 87.841 28.228 87.8062 27.573L87.767 25.6103L87.8018 23.6477C87.841 22.9926 87.8498 22.34 87.9107 21.685C88.0066 20.3773 88.1503 19.0673 88.4203 17.7596C88.6947 19.0673 88.8559 20.3773 88.9343 21.685C88.9909 22.34 89.004 22.9926 89.0432 23.6477L89.0736 25.6103L89.0388 27.573C89.004 28.228 88.9909 28.883 88.9299 29.5357C88.8341 30.8457 88.6947 32.1534 88.4203 33.4634Z" fill="#191815"/>
<path d="M58.4196 37.5083C58.1495 35.5265 58.0101 33.5423 57.9143 31.5605C57.8533 30.5684 57.8403 29.5763 57.8054 28.5842L57.7662 25.6103L57.8011 22.6365C57.8403 21.6444 57.849 20.6547 57.9099 19.6626C58.0058 17.6784 58.1495 15.6966 58.4196 13.7124C58.694 15.6966 58.8551 17.6784 58.9291 19.6626C58.9901 20.6547 59.0032 21.6444 59.038 22.6365L59.0729 25.6103L59.038 28.5842C59.0032 29.5763 58.9901 30.5684 58.9291 31.5605C58.8333 33.5447 58.6896 35.5265 58.4196 37.5083Z" fill="#191815"/>
<path d="M42.0515 30.6425C41.7957 29.8101 41.6256 28.9705 41.5419 28.1276C41.4374 27.2885 41.4025 26.4542 41.3982 25.6103C41.3938 24.7665 41.4374 23.9369 41.5419 23.0954C41.6235 22.2517 41.7936 21.4112 42.0515 20.5782C42.3073 21.4113 42.4774 22.2518 42.5611 23.0954C42.6657 23.9345 42.7048 24.7688 42.7048 25.6103C42.7048 26.4518 42.6613 27.2838 42.5611 28.1276C42.4775 28.9705 42.3073 29.8101 42.0515 30.6425Z" fill="#191815"/>
<path d="M31.1367 29.7317C30.8855 29.0516 30.7152 28.3632 30.6271 27.671C30.5313 26.9849 30.4877 26.2988 30.4834 25.6103C30.479 24.9218 30.5269 24.2381 30.6227 23.5496C30.7108 22.8573 30.8825 22.1688 31.1367 21.489C31.393 22.1687 31.5647 22.8571 31.6506 23.5496C31.7464 24.2381 31.7929 24.925 31.79 25.6103C31.79 26.2988 31.7464 26.9849 31.6506 27.671C31.5632 28.3634 31.3915 29.0518 31.1367 29.7317Z" fill="#191815"/>
<path d="M25.6835 29.7317C25.4287 29.0518 25.257 28.3634 25.1696 27.671C25.0737 26.9849 25.0302 26.2988 25.0302 25.6103C25.0302 24.9218 25.0737 24.2381 25.1696 23.5496C25.2555 22.8571 25.4273 22.1687 25.6835 21.489C25.9356 22.169 26.1073 22.8574 26.1975 23.5496C26.2933 24.2381 26.3369 24.9242 26.3369 25.6103C26.3369 26.2964 26.2889 26.9849 26.1931 27.671C26.105 28.3632 25.9348 29.0516 25.6835 29.7317Z" fill="#191815"/>
<path d="M14.7817 29.7317C14.5304 29.0516 14.3602 28.3632 14.2721 27.671C14.1762 26.9857 14.1284 26.2988 14.1284 25.6103C14.1284 24.9242 14.1719 24.2381 14.2677 23.5496C14.3558 22.8573 14.5275 22.1688 14.7817 21.489C15.038 22.1687 15.2097 22.8571 15.2957 23.5496C15.3915 24.2381 15.4379 24.925 15.435 25.6103C15.435 26.2988 15.3915 26.9849 15.2957 27.671C15.2082 28.3634 15.0365 29.0518 14.7817 29.7317Z" fill="#191815"/>
<path d="M6.59772 31.1063C6.34391 30.196 6.17386 29.2792 6.08816 28.3595C6.03154 27.9005 6.01847 27.4439 5.97928 26.9849L5.9444 25.6103C5.9444 24.6947 5.99234 23.7791 6.08816 22.8636C6.17191 21.943 6.34197 21.0254 6.59772 20.1144C6.85563 21.0252 7.02575 21.9429 7.10734 22.8636C7.20316 23.7791 7.25541 24.6947 7.25105 25.6103L7.21622 26.9849C7.18138 27.4439 7.16831 27.9005 7.10734 28.3595C7.0238 29.2793 6.85369 30.1961 6.59772 31.1063Z" fill="#191815"/>
<path d="M3.87982 30.0783C3.62435 29.3399 3.45418 28.5933 3.37026 27.8431C3.26573 27.0997 3.23085 26.3562 3.22649 25.6103C3.22214 24.8645 3.26573 24.121 3.37026 23.3775C3.45203 22.628 3.62222 21.8822 3.87982 21.1447C4.13528 21.8823 4.3055 22.6281 4.38943 23.3775C4.49396 24.121 4.53314 24.8669 4.53314 25.6103C4.53314 26.3538 4.48961 27.0997 4.38943 27.8431C4.30551 28.5933 4.13529 29.3399 3.87982 30.0783Z" fill="#191815"/>
<path d="M1.15321 28.644C0.900149 28.1482 0.728181 27.6409 0.639288 27.1284C0.545072 26.624 0.498521 26.1173 0.499882 25.6103C0.496345 25.1041 0.542902 24.5982 0.639288 24.0947C0.726042 23.5812 0.898044 23.0731 1.15321 22.5767C1.40419 23.0736 1.57618 23.5815 1.66718 24.0947C1.7614 24.5983 1.80789 25.1041 1.80654 25.6103C1.80654 26.1171 1.75864 26.6216 1.66282 27.1284C1.57332 27.6407 1.40279 28.1478 1.15321 28.644Z" fill="#191815"/>
<path d="M22.9526 31.9023C22.6826 30.8529 22.5432 29.8058 22.4474 28.7563C22.3864 28.2328 22.3733 27.7093 22.3385 27.1833L22.2993 25.6103C22.2993 24.5632 22.3472 23.5138 22.443 22.4643C22.5389 21.4148 22.6826 20.3678 22.9526 19.3183C23.227 20.3678 23.3664 21.4172 23.4623 22.4643C23.5581 23.5114 23.6103 24.5632 23.606 25.6103L23.5711 27.1833C23.5363 27.7093 23.5232 28.2328 23.4623 28.7563C23.3664 29.8058 23.2227 30.8529 22.9526 31.9023Z" fill="#191815"/>
<path d="M17.5126 31.9023C17.2426 30.8529 17.0771 29.8058 17.003 28.7563C16.942 28.2328 16.929 27.7093 16.8941 27.1833L16.8593 25.6103C16.8593 24.5632 16.9072 23.5138 17.003 22.4643C17.0988 21.4148 17.2382 20.3678 17.5126 19.3183C17.7827 20.3678 17.9264 21.4172 18.0223 22.4643C18.1181 23.5114 18.1703 24.5632 18.166 25.6103L18.1268 27.1833C18.0919 27.7093 18.0789 28.2328 18.0179 28.7563C17.9221 29.8058 17.7783 30.8529 17.5126 31.9023Z" fill="#191815"/>
<path d="M20.2305 33.4634C19.9604 32.1534 19.7949 30.8457 19.7209 29.5357C19.6599 28.883 19.6468 28.228 19.612 27.573L19.5771 25.6103L19.612 23.6477C19.6468 22.9926 19.6599 22.34 19.7209 21.685C19.8167 20.3773 19.9561 19.0673 20.2305 17.7596C20.5005 19.0673 20.6443 20.3773 20.7401 21.685C20.8011 22.34 20.8141 22.9926 20.849 23.6477L20.8838 25.6103L20.849 27.573C20.8098 28.228 20.7967 28.883 20.7401 29.5357C20.6399 30.8457 20.5005 32.1534 20.2305 33.4634Z" fill="#191815"/>
<path d="M12.0552 33.4634C11.7851 32.1534 11.6414 30.8457 11.5456 29.5357C11.4846 28.883 11.4715 28.228 11.4367 27.573L11.4019 25.6103L11.4367 23.6477C11.4715 22.9926 11.4846 22.34 11.5456 21.685C11.6414 20.3773 11.7808 19.0673 12.0552 17.7596C12.3252 19.0673 12.4908 20.3773 12.5648 21.685C12.6258 22.34 12.6388 22.9926 12.6737 23.6477L12.7085 25.6103L12.6737 27.573C12.6345 28.228 12.6214 28.883 12.5648 29.5357C12.4646 30.8457 12.3252 32.1534 12.0552 33.4634Z" fill="#191815"/>
<path d="M9.32862 35.0579C9.05422 33.4825 8.91488 31.9095 8.81906 30.3341C8.75808 29.5476 8.74502 28.7587 8.71017 27.9722L8.67529 25.6103L8.70581 23.2484C8.74501 22.4619 8.75372 21.6754 8.8147 20.8865C8.91052 19.3135 9.05422 17.7381 9.32862 16.1651C9.59866 17.7381 9.76419 19.3135 9.83823 20.8865C9.89921 21.6754 9.90792 22.4619 9.94712 23.2484L9.97759 25.6103L9.94276 27.9722C9.90792 28.7587 9.89485 29.5476 9.83387 30.3341C9.73805 31.9095 9.59866 33.4825 9.32862 35.0579Z" fill="#191815"/>
<path d="M93.8778 31.1063C93.6232 30.1961 93.4546 29.2793 93.3726 28.3595C93.3116 27.9005 93.2985 27.4439 93.2637 26.9849L93.2244 25.6103C93.2244 24.6947 93.2724 23.7791 93.3682 22.8636C93.4519 21.943 93.622 21.0254 93.8778 20.1144C94.1357 21.0252 94.3058 21.9429 94.3874 22.8636C94.4832 23.7791 94.5354 24.6947 94.5311 25.6103L94.4963 26.9849C94.4614 27.4439 94.4483 27.9005 94.3874 28.3595C94.3038 29.2793 94.1337 30.1961 93.8778 31.1063Z" fill="#191815"/>
<path d="M77.5185 31.9023C77.2485 30.8529 77.0829 29.8058 77.0089 28.7563C76.9523 28.2328 76.9392 27.7093 76.9 27.1833L76.8652 25.6103C76.8652 24.5632 76.9131 23.5138 77.0089 22.4643C77.1047 21.4148 77.2485 20.3678 77.5185 19.3183C77.7929 20.3678 77.9322 21.4172 78.0281 22.4643C78.1239 23.5114 78.1762 24.5632 78.1718 25.6103L78.1369 27.1833C78.1021 27.7093 78.089 28.2328 78.0281 28.7563C77.9322 29.8058 77.7885 30.8529 77.5185 31.9023Z" fill="#191815"/>
<path d="M82.9672 31.9023C82.6972 30.8529 82.5317 29.8058 82.4576 28.7563C82.3966 28.2328 82.3836 27.7093 82.3487 27.1833L82.3139 25.6103C82.3139 24.5632 82.3618 23.5138 82.4576 22.4643C82.5534 21.4148 82.6928 20.3678 82.9672 19.3183C83.2373 20.3678 83.381 21.4172 83.4768 22.4643C83.5726 23.5114 83.6206 24.5632 83.6206 25.6103L83.5813 27.1833C83.5465 27.7093 83.5334 28.2328 83.4724 28.7563C83.3766 29.8058 83.2373 30.8529 82.9672 31.9023Z" fill="#191815"/>
<path d="M69.3345 47.697C69.0819 44.0155 68.912 40.334 68.8249 36.6525C68.7639 34.8141 68.7508 32.9733 68.716 31.1326L68.6812 25.6103L68.716 20.0905C68.7508 18.2497 68.7639 16.409 68.8249 14.5682C68.9091 10.8867 69.079 7.20603 69.3345 3.52612C69.5871 7.20762 69.757 10.8883 69.8441 14.5682C69.9051 16.409 69.9181 18.2497 69.953 20.0905L69.9878 25.6103L69.953 31.1326C69.9138 32.9733 69.9007 34.8141 69.8441 36.6525C69.757 40.334 69.5871 44.0155 69.3345 47.697Z" fill="#191815"/>
<path d="M74.7919 29.7317C74.5371 29.0518 74.3654 28.3634 74.278 27.671C74.1821 26.9849 74.1386 26.2988 74.1386 25.6103C74.1386 24.9218 74.1821 24.2381 74.278 23.5496C74.3639 22.8571 74.5357 22.1687 74.7919 21.489C75.0461 22.1688 75.2178 22.8573 75.3059 23.5496C75.4017 24.2381 75.4453 24.9242 75.4453 25.6103C75.4453 26.2964 75.3973 26.9849 75.3015 27.671C75.2134 28.3632 75.0432 29.0516 74.7919 29.7317Z" fill="#191815"/>
<path d="M85.6938 29.7317C85.4411 29.0516 85.2694 28.3633 85.1798 27.671C85.084 26.9849 85.0405 26.2988 85.0405 25.6103C85.0405 24.9218 85.084 24.2381 85.1798 23.5496C85.2679 22.8573 85.4396 22.1688 85.6938 21.489C85.948 22.1688 86.1197 22.8573 86.2077 23.5496C86.3035 24.2381 86.3471 24.9242 86.3471 25.6103C86.3471 26.2964 86.3035 26.9849 86.2077 27.671C86.1203 28.3634 85.9486 29.0518 85.6938 29.7317Z" fill="#191815"/>
<path d="M96.6131 30.0783C96.359 29.3398 96.1903 28.5933 96.1078 27.8431C96.0033 27.0997 95.9641 26.3562 95.9597 25.6103C95.9554 24.8645 96.0033 24.121 96.1035 23.3775C96.1874 22.6281 96.3576 21.8823 96.6131 21.1447C96.8727 21.882 97.043 22.6279 97.1227 23.3775C97.2272 24.121 97.2664 24.8669 97.2664 25.6103C97.2664 26.3538 97.2272 27.0997 97.1227 27.8431C97.0388 28.5933 96.8685 29.3399 96.6131 30.0783Z" fill="#191815"/>
<path d="M99.3265 28.644C99.0734 28.1482 98.9014 27.6409 98.8125 27.1284C98.6267 26.1197 98.6267 25.1034 98.8125 24.0947C98.9014 23.5813 99.0734 23.0733 99.3265 22.5767C99.5796 23.0733 99.7516 23.5813 99.8404 24.0947C100.029 25.1033 100.029 26.1198 99.8404 27.1284C99.7495 27.6408 99.5775 28.1479 99.3265 28.644Z" fill="#191815"/>
<path d="M194.756 42.7054C194.486 39.8558 194.346 37.0086 194.25 34.1591C194.189 32.7247 194.176 31.3095 194.142 29.8847L194.102 25.6103L194.137 21.336C194.176 19.9136 194.185 18.4888 194.246 17.064C194.342 14.2144 194.486 11.3648 194.756 8.51526C195.03 11.3648 195.191 14.2144 195.265 17.064C195.326 18.4983 195.339 19.9136 195.374 21.336L195.409 25.6103L195.374 29.8847C195.339 31.3191 195.326 32.7343 195.265 34.1591C195.169 37.0086 195.048 39.8558 194.756 42.7054Z" fill="#191815"/>
<path d="M197.487 35.4356C197.217 33.7981 197.073 32.1605 196.977 30.523C196.916 29.7054 196.903 28.8854 196.868 28.0679L196.833 25.6103L196.868 23.1552C196.903 22.3352 196.916 21.5177 196.977 20.6977C197.073 19.0601 197.212 17.425 197.487 15.7874C197.757 17.425 197.922 19.0601 197.996 20.6977C198.057 21.5177 198.066 22.3352 198.105 23.1552L198.14 25.6103L198.101 28.0679C198.066 28.8854 198.053 29.7054 197.992 30.523C197.896 32.1605 197.757 33.7981 197.487 35.4356Z" fill="#191815"/>
<path d="M208.397 39.2821C208.127 37.0015 207.988 34.7233 207.892 32.4426C207.831 31.3023 207.818 30.162 207.783 29.0241L207.744 25.6032L207.779 22.1846C207.818 21.0443 207.827 19.904 207.888 18.7661C207.983 16.4855 208.127 14.2049 208.397 11.9266C208.671 14.2049 208.811 16.4855 208.907 18.7661C208.968 19.904 208.981 21.0443 209.016 22.1846L209.05 25.6032L209.016 29.0241C208.981 30.162 208.968 31.3023 208.907 32.4426C208.811 34.74 208.667 37.0087 208.397 39.2821Z" fill="#191815"/>
<path d="M216.581 37.5083C216.311 35.5265 216.172 33.5423 216.076 31.5605C216.015 30.5684 216.002 29.5763 215.967 28.5842L215.932 25.6103L215.963 22.6365C216.002 21.6444 216.011 20.6547 216.072 19.6626C216.167 17.6784 216.311 15.6966 216.581 13.7124C216.856 15.6966 217.017 17.6784 217.095 19.6626C217.156 20.6547 217.165 21.6444 217.204 22.6365L217.234 25.6103L217.2 28.5842C217.165 29.5763 217.152 30.5684 217.091 31.5605C216.995 33.5447 216.856 35.5265 216.581 37.5083Z" fill="#191815"/>
<path d="M235.671 35.0579C235.401 33.4825 235.258 31.9095 235.162 30.3341C235.105 29.5476 235.088 28.7587 235.053 27.9722L235.018 25.6103L235.053 23.2484C235.088 22.4619 235.101 21.6754 235.162 20.8865C235.258 19.3135 235.401 17.7381 235.671 16.1651C235.941 17.7381 236.085 19.3135 236.181 20.8865C236.242 21.6754 236.255 22.4619 236.29 23.2484L236.325 25.6103L236.29 27.9722C236.255 28.7587 236.238 29.5476 236.181 30.3341C236.085 31.9095 235.941 33.4825 235.671 35.0579Z" fill="#191815"/>
<path d="M192.029 35.4356C191.759 33.7981 191.594 32.1605 191.52 30.523C191.459 29.7054 191.445 28.8854 191.411 28.0679L191.376 25.6103L191.411 23.1552C191.445 22.3352 191.459 21.5177 191.52 20.6977C191.615 19.0601 191.755 17.425 192.029 15.7874C192.299 17.425 192.443 19.0601 192.539 20.6977C192.6 21.5177 192.613 22.3352 192.648 23.1552L192.683 25.6103L192.648 28.0679C192.608 28.8854 192.595 29.7054 192.539 30.523C192.434 32.1605 192.299 33.7981 192.029 35.4356Z" fill="#191815"/>
<path d="M200.213 33.4324C199.943 32.1271 199.804 30.8242 199.704 29.5213C199.647 28.8687 199.634 28.2185 199.595 27.5658L199.56 25.6103L199.595 23.6549C199.63 23.0046 199.643 22.352 199.704 21.7017C199.799 20.3965 199.943 19.0936 200.213 17.7907C200.488 19.0936 200.627 20.3965 200.723 21.7017C200.784 22.352 200.797 23.0046 200.832 23.6549L200.867 25.6103L200.832 27.5658C200.797 28.2185 200.784 28.8687 200.723 29.5213C200.627 30.8242 200.483 32.1271 200.213 33.4324Z" fill="#191815"/>
<path d="M189.303 33.4324C189.028 32.1271 188.889 30.8242 188.793 29.5213C188.732 28.8687 188.719 28.2185 188.684 27.5658L188.649 25.6103L188.68 23.6549C188.719 23.0046 188.728 22.352 188.789 21.7017C188.884 20.3965 189.028 19.0936 189.303 17.7907C189.573 19.0936 189.738 20.3965 189.812 21.7017C189.873 22.352 189.882 23.0046 189.921 23.6549L189.952 25.6103L189.917 27.5658C189.882 28.2185 189.869 28.8687 189.808 29.5213C189.712 30.8242 189.573 32.1271 189.303 33.4324Z" fill="#191815"/>
<path d="M183.845 41.3715C183.575 38.7418 183.41 36.1122 183.336 33.4825C183.275 32.1701 183.262 30.8529 183.227 29.5429L183.192 25.6032L183.227 21.6635C183.262 20.351 183.275 19.0338 183.336 17.7238C183.431 15.0942 183.571 12.4645 183.845 9.83487C184.115 12.4645 184.259 15.0942 184.355 17.7238C184.416 19.0362 184.424 20.3534 184.464 21.6635L184.498 25.6032L184.459 29.5429C184.424 30.8577 184.411 32.1725 184.35 33.4825C184.255 36.117 184.115 38.7442 183.845 41.3715Z" fill="#191815"/>
<path d="M178.388 42.7771C178.118 39.9084 177.974 37.0541 177.878 34.1925C177.817 32.7582 177.804 31.3238 177.769 29.8895L177.734 25.5864L177.769 21.2953C177.804 19.861 177.817 18.4266 177.878 16.9923C177.974 14.1236 178.113 11.2716 178.388 8.41006C178.658 11.2788 178.801 14.1307 178.897 16.9923C178.958 18.4266 178.971 19.861 179.006 21.2953L179.041 25.5864L179.006 29.8895C178.967 31.3238 178.954 32.7582 178.897 34.1925C178.801 37.0541 178.658 39.9156 178.388 42.7771Z" fill="#191815"/>
<path d="M181.11 47.697C180.857 44.0155 180.689 40.334 180.605 36.6525C180.544 34.8141 180.531 32.9733 180.496 31.1326L180.457 25.6103L180.491 20.0905C180.531 18.2497 180.539 16.409 180.6 14.5682C180.687 10.8867 180.857 7.20603 181.11 3.52612C181.365 7.20762 181.535 10.8883 181.619 14.5682C181.68 16.409 181.694 18.2497 181.728 20.0905L181.763 25.6103L181.728 31.1326C181.694 32.9733 181.68 34.8141 181.619 36.6525C181.535 40.334 181.365 44.0155 181.11 47.697Z" fill="#191815"/>
<path d="M172.93 35.0579C172.66 33.4825 172.521 31.9095 172.425 30.3341C172.364 29.5476 172.351 28.7587 172.312 27.9722L172.277 25.6103L172.312 23.2484C172.347 22.4619 172.36 21.6754 172.421 20.8865C172.517 19.3135 172.66 17.7381 172.93 16.1651C173.205 17.7381 173.366 19.3135 173.44 20.8865C173.501 21.6754 173.514 22.4619 173.549 23.2484L173.584 25.6103L173.549 27.9722C173.514 28.7587 173.501 29.5476 173.44 30.3341C173.344 31.9095 173.2 33.4825 172.93 35.0579Z" fill="#191815"/>
<path d="M205.671 33.4634C205.4 32.1534 205.257 30.8457 205.161 29.5357C205.1 28.883 205.087 28.228 205.052 27.573L205.017 25.6103L205.052 23.6477C205.087 22.9926 205.1 22.34 205.161 21.685C205.257 20.3773 205.396 19.0673 205.671 17.7596C205.941 19.0673 206.106 20.3773 206.18 21.685C206.241 22.34 206.254 22.9926 206.289 23.6477L206.324 25.6103L206.289 27.573C206.25 28.228 206.237 28.883 206.18 29.5357C206.08 30.8457 205.936 32.1534 205.671 33.4634Z" fill="#191815"/>
<path d="M211.128 33.4634C210.858 32.1534 210.693 30.8457 210.618 29.5357C210.558 28.883 210.544 28.228 210.51 27.573L210.475 25.6103L210.51 23.6477C210.544 22.9926 210.558 22.34 210.618 21.685C210.714 20.3773 210.854 19.0673 211.128 17.7596C211.398 19.0673 211.542 20.3773 211.638 21.685C211.699 22.34 211.707 22.9926 211.747 23.6477L211.781 25.6103L211.742 27.573C211.707 28.228 211.694 28.883 211.633 29.5357C211.538 30.8457 211.398 32.1534 211.128 33.4634Z" fill="#191815"/>
<path d="M224.769 33.4634C224.499 32.1534 224.356 30.8457 224.26 29.5357C224.199 28.883 224.186 28.228 224.151 27.573L224.116 25.6103L224.151 23.6477C224.186 22.9926 224.199 22.34 224.26 21.685C224.356 20.3773 224.495 19.0673 224.769 17.7596C225.04 19.0673 225.205 20.3773 225.279 21.685C225.34 22.34 225.349 22.9926 225.388 23.6477L225.423 25.6103L225.384 27.573C225.349 28.228 225.336 28.883 225.275 29.5357C225.179 30.8457 225.04 32.1534 224.769 33.4634Z" fill="#191815"/>
<path d="M232.94 33.4634C232.67 32.1534 232.505 30.8457 232.431 29.5357C232.37 28.883 232.357 28.228 232.322 27.573L232.287 25.6103L232.322 23.6477C232.357 22.9926 232.37 22.34 232.431 21.685C232.527 20.3773 232.666 19.0673 232.94 17.7596C233.21 19.0673 233.354 20.3773 233.45 21.685C233.511 22.34 233.52 22.9926 233.559 23.6477L233.594 25.6103L233.555 27.573C233.52 28.228 233.507 28.883 233.446 29.5357C233.376 30.8457 233.215 32.1534 232.94 33.4634Z" fill="#191815"/>
<path d="M202.94 30.6425C202.686 29.8101 202.517 28.9705 202.434 28.1276C202.33 27.2885 202.291 26.4542 202.286 25.6103C202.282 24.7665 202.33 23.9369 202.43 23.0954C202.514 22.2518 202.684 21.4113 202.94 20.5782C203.199 21.4111 203.371 22.2516 203.454 23.0954C203.554 23.9345 203.593 24.7688 203.597 25.6103C203.602 26.4518 203.554 27.2838 203.449 28.1276C203.368 28.9706 203.197 29.8103 202.94 30.6425Z" fill="#191815"/>
<path d="M186.572 30.6425C186.318 29.8099 186.148 28.9704 186.062 28.1276C185.962 27.2885 185.923 26.4542 185.918 25.6103C185.914 24.7665 185.958 23.9369 186.062 23.0954C186.146 22.2518 186.316 21.4113 186.572 20.5782C186.83 21.4112 187 22.2517 187.081 23.0954C187.186 23.9345 187.225 24.7688 187.225 25.6103C187.225 26.4518 187.186 27.2838 187.081 28.1276C186.997 28.9705 186.827 29.8101 186.572 30.6425Z" fill="#191815"/>
<path d="M175.661 39.2821C175.387 37.0015 175.247 34.7233 175.152 32.4426C175.091 31.3023 175.078 30.162 175.043 29.0241L175.008 25.6032L175.038 22.1846C175.078 21.0443 175.091 19.904 175.147 18.7661C175.243 16.4855 175.387 14.2049 175.661 11.9266C175.931 14.2049 176.097 16.4855 176.171 18.7661C176.232 19.904 176.24 21.0443 176.28 22.1846L176.314 25.6032L176.275 29.0241C176.24 30.162 176.227 31.3023 176.166 32.4426C176.071 34.74 175.931 37.0087 175.661 39.2821Z" fill="#191815"/>
<path d="M170.221 29.7317C169.966 29.0518 169.795 28.3634 169.707 27.671C169.611 26.9849 169.568 26.2988 169.568 25.6103C169.568 24.9218 169.611 24.2381 169.707 23.5496C169.795 22.8573 169.967 22.1688 170.221 21.489C170.475 22.1688 170.647 22.8573 170.735 23.5496C170.831 24.2381 170.874 24.9242 170.874 25.6103C170.874 26.2964 170.827 26.9849 170.731 27.671C170.643 28.3632 170.472 29.0516 170.221 29.7317Z" fill="#191815"/>
<path d="M159.306 29.7317C159.051 29.0518 158.88 28.3634 158.792 27.671C158.696 26.9849 158.653 26.2988 158.653 25.6103C158.653 24.9218 158.696 24.2381 158.792 23.5496C158.878 22.8571 159.05 22.1687 159.306 21.489C159.559 22.1689 159.729 22.8573 159.816 23.5496C159.912 24.2381 159.96 24.925 159.96 25.6103C159.96 26.2988 159.912 26.9849 159.816 27.671C159.728 28.3632 159.557 29.0516 159.306 29.7317Z" fill="#191815"/>
<path d="M151.118 31.1063C150.863 30.1961 150.695 29.2793 150.613 28.3595C150.552 27.9005 150.539 27.4439 150.504 26.9849L150.464 25.6103C150.464 24.6947 150.512 23.7791 150.608 22.8636C150.692 21.943 150.862 21.0254 151.118 20.1144C151.376 21.0252 151.546 21.9429 151.627 22.8636C151.723 23.7791 151.775 24.6947 151.771 25.6103L151.736 26.9849C151.702 27.4439 151.688 27.9005 151.627 28.3595C151.544 29.2793 151.374 30.1961 151.118 31.1063Z" fill="#191815"/>
<path d="M148.4 30.0783C148.147 29.3397 147.976 28.5932 147.89 27.8431C147.79 27.0997 147.751 26.3562 147.747 25.6103C147.742 24.8645 147.786 24.121 147.89 23.3775C147.974 22.6281 148.145 21.8823 148.4 21.1447C148.658 21.8822 148.828 22.628 148.91 23.3775C149.014 24.121 149.053 24.8669 149.053 25.6103C149.053 26.3538 149.014 27.0997 148.91 27.8431C148.826 28.5933 148.655 29.3399 148.4 30.0783Z" fill="#191815"/>
<path d="M145.673 28.644C145.42 28.1482 145.248 27.6409 145.16 27.1284C144.974 26.1197 144.974 25.1034 145.16 24.0947C145.248 23.5813 145.42 23.0733 145.673 22.5767C145.927 23.0733 146.099 23.5813 146.187 24.0947C146.376 25.1033 146.376 26.1198 146.187 27.1284C146.097 27.6408 145.925 28.1479 145.673 28.644Z" fill="#191815"/>
<path d="M167.473 31.9023C167.203 30.8529 167.063 29.8058 166.968 28.7563C166.907 28.2328 166.894 27.7093 166.859 27.1833L166.819 25.6103C166.819 24.5632 166.872 23.5138 166.963 22.4643C167.055 21.4148 167.203 20.3678 167.473 19.3183C167.747 20.3678 167.887 21.4172 167.982 22.4643C168.078 23.5114 168.13 24.5632 168.126 25.6103L168.091 27.1833C168.056 27.7093 168.043 28.2328 167.982 28.7563C167.887 29.8058 167.743 30.8529 167.473 31.9023Z" fill="#191815"/>
<path d="M162.033 31.9023C161.763 30.8529 161.619 29.8058 161.523 28.7563C161.462 28.2328 161.449 27.7093 161.414 27.1833L161.379 25.6103C161.379 24.5632 161.427 23.5138 161.523 22.4643C161.619 21.4148 161.758 20.3678 162.033 19.3183C162.303 20.3678 162.468 21.4172 162.542 22.4643C162.616 23.5114 162.69 24.5632 162.686 25.6103L162.651 27.1833C162.612 27.7093 162.599 28.2328 162.542 28.7563C162.442 29.8058 162.303 30.8529 162.033 31.9023Z" fill="#191815"/>
<path d="M164.751 33.4634C164.481 32.1534 164.341 30.8457 164.241 29.5357C164.184 28.883 164.171 28.228 164.132 27.573L164.097 25.6103L164.132 23.6477C164.167 22.9926 164.18 22.34 164.241 21.685C164.337 20.3773 164.481 19.0673 164.751 17.7596C165.025 19.0673 165.164 20.3773 165.26 21.685C165.321 22.34 165.334 22.9926 165.369 23.6477L165.404 25.6103L165.369 27.573C165.334 28.228 165.321 28.883 165.26 29.5357C165.164 30.8457 165.021 32.1534 164.751 33.4634Z" fill="#191815"/>
<path d="M156.575 33.4634C156.305 32.1534 156.166 30.8457 156.066 29.5357C156.009 28.883 155.996 28.228 155.957 27.573L155.922 25.6103L155.957 23.6477C155.992 22.9926 156.005 22.34 156.066 21.685C156.162 20.3773 156.305 19.0673 156.575 17.7596C156.85 19.0673 156.989 20.3773 157.085 21.685C157.146 22.34 157.159 22.9926 157.194 23.6477L157.229 25.6103L157.194 27.573C157.159 28.228 157.146 28.883 157.085 29.5357C156.989 30.8457 156.845 32.1534 156.575 33.4634Z" fill="#191815"/>
<path d="M153.849 35.0579C153.579 33.4825 153.435 31.9095 153.339 30.3341C153.278 29.5476 153.265 28.7587 153.23 27.9722L153.195 25.6103L153.23 23.2484C153.265 22.4619 153.278 21.6754 153.339 20.8865C153.435 19.3135 153.574 17.7381 153.849 16.1651C154.119 17.7381 154.284 19.3135 154.358 20.8865C154.419 21.6754 154.428 22.4619 154.467 23.2484L154.502 25.6103L154.463 27.9722C154.428 28.7587 154.415 29.5476 154.354 30.3341C154.258 31.9095 154.106 33.4825 153.849 35.0579Z" fill="#191815"/>
<path d="M238.398 31.1063C238.143 30.1961 237.975 29.2793 237.893 28.3595C237.832 27.9005 237.819 27.4439 237.784 26.9849L237.745 25.6103C237.745 24.6947 237.797 23.7791 237.888 22.8636C237.972 21.943 238.142 21.0254 238.398 20.1144C238.657 21.0252 238.829 21.9428 238.912 22.8636C239.003 23.7791 239.056 24.6947 239.051 25.6103L239.016 26.9849C238.982 27.4439 238.968 27.9005 238.908 28.3595C238.826 29.2794 238.656 30.1963 238.398 31.1063Z" fill="#191815"/>
<path d="M222.052 31.9023C221.782 30.8529 221.642 29.8058 221.546 28.7563C221.485 28.2328 221.472 27.7093 221.438 27.1833L221.398 25.6103C221.398 24.5632 221.446 23.5138 221.542 22.4643C221.638 21.4148 221.782 20.3678 222.052 19.3183C222.326 20.3678 222.487 21.4172 222.561 22.4643C222.635 23.5114 222.709 24.5632 222.705 25.6103L222.67 27.1833C222.635 27.7093 222.622 28.2328 222.561 28.7563C222.452 29.8058 222.309 30.8529 222.052 31.9023Z" fill="#191815"/>
<path d="M227.487 31.9023C227.217 30.8529 227.074 29.8058 226.978 28.7563C226.917 28.2328 226.904 27.7093 226.869 27.1833L226.834 25.6103C226.834 24.5632 226.882 23.5138 226.978 22.4643C227.074 21.4148 227.213 20.3678 227.487 19.3183C227.757 20.3678 227.901 21.4172 227.997 22.4643C228.093 23.5114 228.145 24.5632 228.141 25.6103L228.106 27.1833C228.067 27.7093 228.053 28.2328 227.993 28.7563C227.897 29.8058 227.757 30.8529 227.487 31.9023Z" fill="#191815"/>
<path d="M213.855 29.7317C213.602 29.0516 213.43 28.3633 213.341 27.671C213.245 26.9849 213.201 26.2988 213.201 25.6103C213.201 24.9218 213.245 24.2381 213.341 23.5496C213.429 22.8573 213.6 22.1688 213.855 21.489C214.109 22.1688 214.281 22.8573 214.369 23.5496C214.464 24.2381 214.508 24.9242 214.508 25.6103C214.508 26.2964 214.464 26.9849 214.369 27.671C214.281 28.3634 214.109 29.0518 213.855 29.7317Z" fill="#191815"/>
<path d="M219.312 29.7317C219.057 29.0518 218.886 28.3634 218.798 27.671C218.702 26.9849 218.659 26.2988 218.659 25.6103C218.659 24.9218 218.702 24.2381 218.798 23.5496C218.886 22.8573 219.058 22.1688 219.312 21.489C219.566 22.1688 219.738 22.8573 219.826 23.5496C219.922 24.2381 219.965 24.9242 219.965 25.6103C219.965 26.2964 219.917 26.9849 219.822 27.671C219.736 28.3634 219.565 29.0518 219.312 29.7317Z" fill="#191815"/>
<path d="M230.214 29.7317C229.963 29.0516 229.792 28.3632 229.704 27.671C229.608 26.9857 229.561 26.2988 229.561 25.6103C229.561 24.9242 229.604 24.2381 229.7 23.5496C229.788 22.8573 229.96 22.1688 230.214 21.489C230.468 22.1688 230.64 22.8573 230.728 23.5496C230.824 24.2381 230.867 24.9242 230.867 25.6103C230.867 26.2964 230.824 26.9849 230.728 27.671C230.64 28.3634 230.469 29.0518 230.214 29.7317Z" fill="#191815"/>
<path d="M241.12 30.0759C240.864 29.3383 240.694 28.5926 240.611 27.8431C240.506 27.0997 240.467 26.3562 240.467 25.6103C240.467 24.8645 240.506 24.121 240.611 23.3775C240.69 22.6279 240.86 21.882 241.12 21.1447C241.376 21.8823 241.546 22.6281 241.63 23.3775C241.73 24.121 241.769 24.8669 241.773 25.6103C241.778 26.3538 241.73 27.0997 241.625 27.8431C241.543 28.5925 241.374 29.3383 241.12 30.0759Z" fill="#191815"/>
<path d="M243.829 28.644C243.576 28.1482 243.404 27.6409 243.315 27.1284C243.129 26.1197 243.129 25.1034 243.315 24.0947C243.404 23.5813 243.576 23.0733 243.829 22.5767C244.082 23.0733 244.254 23.5813 244.343 24.0947C244.529 25.1034 244.529 26.1197 244.343 27.1284C244.254 27.6409 244.082 28.1482 243.829 28.644Z" fill="#191815"/>
<path d="M123.852 52C123.6 47.6667 123.431 43.3333 123.347 39C123.286 36.8341 123.273 34.6659 123.238 32.5L123.199 26L123.234 19.5C123.273 17.3341 123.282 15.1659 123.343 13C123.43 8.66667 123.6 4.33333 123.852 0C124.111 4.33493 124.281 8.66826 124.362 13C124.423 15.1659 124.436 17.3341 124.471 19.5L124.506 26L124.471 32.5C124.436 34.6659 124.423 36.8341 124.362 39C124.275 43.3317 124.105 47.6651 123.852 52Z" fill="#191815"/>
<path d="M126.583 47.9647C126.331 44.2991 126.161 40.6383 126.074 36.9823C126.013 35.1512 126 33.3224 125.965 31.484L125.93 25.9857L125.965 20.4873C126 18.6561 126.013 16.8273 126.074 14.989C126.158 11.3234 126.328 7.66262 126.583 4.00662C126.836 7.67219 127.006 11.333 127.093 14.989C127.154 16.8202 127.163 18.649 127.202 20.4873L127.237 25.9857L127.197 31.484C127.163 33.3152 127.149 35.144 127.089 36.9823C127.007 40.6431 126.839 44.3039 126.583 47.9647Z" fill="#191815"/>
<path d="M137.494 47.1208C137.241 43.5987 137.073 40.0781 136.989 36.5592C136.928 34.7997 136.915 33.0403 136.88 31.2808L136.841 26L136.875 20.7192C136.915 18.9597 136.923 17.2003 136.984 15.4408C137.071 11.9187 137.241 8.39812 137.494 4.87918C137.749 8.40131 137.919 11.9218 138.003 15.4408C138.064 17.2003 138.078 18.9597 138.112 20.7192L138.147 26L138.112 31.2808C138.078 33.0403 138.064 34.7997 138.003 36.5592C137.916 40.0813 137.747 43.6019 137.494 47.1208Z" fill="#191815"/>
<path d="M145.678 47.1208C145.425 43.5987 145.257 40.0781 145.173 36.5592C145.112 34.7997 145.099 33.0403 145.064 31.2808L145.025 26L145.059 20.7192C145.099 18.9597 145.107 17.2003 145.168 15.4408C145.255 11.9187 145.425 8.39812 145.678 4.87918C145.933 8.40131 146.103 11.9218 146.188 15.4408C146.249 17.2003 146.262 18.9597 146.296 20.7192L146.331 26L146.296 31.2808C146.262 33.0403 146.249 34.7997 146.188 36.5592C146.1 40.0813 145.93 43.6019 145.678 47.1208Z" fill="#191815"/>
<path d="M164.768 43.554C164.498 40.628 164.354 37.7019 164.259 34.7782C164.198 33.3152 164.184 31.8521 164.15 30.3891L164.115 26L164.15 21.6109C164.184 20.1478 164.198 18.6848 164.259 17.2241C164.354 14.2981 164.494 11.372 164.768 8.44592C165.038 11.372 165.182 14.2981 165.278 17.2241C165.339 18.6848 165.352 20.1478 165.387 21.6109L165.421 26L165.387 30.3891C165.347 31.8521 165.334 33.3152 165.278 34.7782C165.182 37.7019 165.038 40.628 164.768 43.554Z" fill="#191815"/>
<path d="M121.126 47.9647C120.873 44.2991 120.703 40.6383 120.616 36.9823C120.555 35.1512 120.542 33.3224 120.507 31.484L120.473 25.9857L120.507 20.4873C120.542 18.6561 120.555 16.8273 120.616 14.989C120.701 11.3234 120.87 7.66262 121.126 4.00662C121.378 7.67219 121.548 11.333 121.635 14.989C121.696 16.8202 121.709 18.649 121.744 20.4873L121.779 25.9857L121.744 31.484C121.705 33.3152 121.692 35.144 121.635 36.9823C121.548 40.6431 121.378 44.3039 121.126 47.9647Z" fill="#191815"/>
<path d="M129.31 43.4847C129.04 40.5706 128.874 37.6565 128.8 34.7424C128.744 33.2865 128.726 31.8282 128.691 30.3724L128.656 26L128.691 21.63C128.726 20.1717 128.739 18.7159 128.8 17.2576C128.896 14.3435 129.04 11.4294 129.31 8.51526C129.584 11.4294 129.724 14.3435 129.819 17.2576C129.88 18.7159 129.893 20.1717 129.928 21.63L129.963 26L129.928 30.3724C129.893 31.8282 129.88 33.2865 129.819 34.7424C129.715 37.6565 129.58 40.5706 129.31 43.4847Z" fill="#191815"/>
<path d="M118.391 43.4847C118.121 40.5706 117.981 37.6565 117.885 34.7424C117.824 33.2865 117.811 31.8282 117.777 30.3724L117.742 26L117.772 21.63C117.811 20.1717 117.82 18.7159 117.881 17.2576C117.977 14.3435 118.121 11.4294 118.391 8.51526C118.665 11.4294 118.826 14.3435 118.905 17.2576C118.966 18.7159 118.974 20.1717 119.013 21.63L119.044 26L119.009 30.3724C118.974 31.8282 118.961 33.2865 118.9 34.7424C118.826 37.6565 118.669 40.5706 118.391 43.4847Z" fill="#191815"/>
<path d="M112.942 43.4847C112.672 40.5706 112.528 37.6565 112.432 34.7424C112.371 33.2865 112.358 31.8282 112.323 30.3724L112.289 26L112.323 21.63C112.358 20.1717 112.371 18.7159 112.432 17.2576C112.528 14.3435 112.667 11.4294 112.942 8.51526C113.212 11.4294 113.377 14.3435 113.451 17.2576C113.512 18.7159 113.521 20.1717 113.56 21.63L113.595 26L113.556 30.3724C113.521 31.8282 113.508 33.2865 113.447 34.7424C113.351 37.6565 113.212 40.5706 112.942 43.4847Z" fill="#191815"/>
<path d="M107.502 43.4847C107.232 40.5706 107.066 37.6565 106.992 34.7424C106.931 33.2865 106.918 31.8282 106.883 30.3724L106.848 26L106.883 21.63C106.918 20.1717 106.931 18.7159 106.992 17.2576C107.088 14.3435 107.227 11.4294 107.502 8.51526C107.772 11.4294 107.937 14.3435 108.011 17.2576C108.072 18.7159 108.085 20.1717 108.12 21.63L108.155 26L108.12 30.3724C108.081 31.8282 108.068 33.2865 108.011 34.7424C107.894 37.6565 107.754 40.5706 107.502 43.4847Z" fill="#191815"/>
<path d="M110.211 47.1208C109.958 43.5987 109.79 40.0781 109.706 36.5592C109.645 34.7997 109.632 33.0403 109.597 31.2808L109.558 26L109.592 20.7192C109.632 18.9597 109.64 17.2003 109.701 15.4408C109.788 11.9187 109.958 8.39812 110.211 4.87918C110.466 8.40131 110.636 11.9218 110.721 15.4408C110.782 17.2003 110.795 18.9597 110.829 20.7192L110.864 26L110.829 31.2808C110.795 33.0403 110.782 34.7997 110.721 36.5592C110.633 40.0813 110.464 43.6019 110.211 47.1208Z" fill="#191815"/>
<path d="M102.027 47.1208C101.774 43.5987 101.604 40.0781 101.517 36.5592C101.461 34.7997 101.448 33.0403 101.408 31.2808L101.374 26L101.408 20.7192C101.443 18.9597 101.456 17.2003 101.517 15.4408C101.604 11.9187 101.774 8.39812 102.027 4.87918C102.28 8.40131 102.449 11.9218 102.536 15.4408C102.597 17.2003 102.611 18.9597 102.645 20.7192L102.68 26L102.645 31.2808C102.611 33.0403 102.597 34.7997 102.536 36.5592C102.449 40.0813 102.28 43.6019 102.027 47.1208Z" fill="#191815"/>
<path d="M134.767 43.554C134.497 40.628 134.353 37.7019 134.258 34.7782C134.197 33.3152 134.184 31.8521 134.149 30.3891L134.114 26L134.149 21.6109C134.184 20.1478 134.197 18.6848 134.258 17.2241C134.353 14.2981 134.493 11.372 134.767 8.44592C135.037 11.372 135.203 14.2981 135.277 17.2241C135.338 18.6848 135.351 20.1478 135.386 21.6109L135.421 26L135.377 30.3891C135.342 31.8521 135.329 33.3152 135.268 34.7782C135.177 37.7019 135.037 40.628 134.767 43.554Z" fill="#191815"/>
<path d="M140.225 43.554C139.955 40.628 139.789 37.7019 139.715 34.7782C139.654 33.3152 139.641 31.8521 139.606 30.3891L139.571 26L139.606 21.6109C139.641 20.1478 139.654 18.6848 139.715 17.2241C139.811 14.2981 139.95 11.372 140.225 8.44592C140.495 11.372 140.639 14.2981 140.734 17.2241C140.795 18.6848 140.804 20.1478 140.843 21.6109L140.878 26L140.839 30.3891C140.804 31.8521 140.791 33.3152 140.73 34.7782C140.634 37.7019 140.495 40.628 140.225 43.554Z" fill="#191815"/>
<path d="M153.866 43.554C153.592 40.628 153.452 37.7019 153.357 34.7782C153.296 33.3152 153.283 31.8521 153.248 30.3891L153.213 26L153.248 21.6109C153.283 20.1478 153.296 18.6848 153.352 17.2241C153.448 14.2981 153.592 11.372 153.866 8.44592C154.136 11.372 154.302 14.2981 154.376 17.2241C154.437 18.6848 154.446 20.1478 154.485 21.6109L154.519 26L154.48 30.3891C154.446 31.8521 154.432 33.3152 154.371 34.7782C154.276 37.7019 154.136 40.628 153.866 43.554Z" fill="#191815"/>
<path d="M132.036 37.2501C131.766 35.3759 131.627 33.4993 131.531 31.625C131.47 30.6879 131.457 29.7508 131.422 28.8137L131.383 26L131.418 23.1887C131.457 22.2492 131.466 21.3121 131.527 20.3749C131.623 18.5007 131.766 16.6241 132.036 14.7499C132.311 16.6241 132.472 18.5007 132.55 20.3749C132.607 21.3121 132.62 22.2492 132.659 23.1887L132.69 26L132.655 28.8137C132.62 29.7508 132.607 30.6879 132.546 31.625C132.45 33.4993 132.328 35.3759 132.036 37.2501Z" fill="#191815"/>
<path d="M115.668 37.2501C115.398 35.3759 115.259 33.4993 115.159 31.625C115.102 30.6879 115.089 29.7508 115.05 28.8137L115.015 26L115.05 23.1887C115.085 22.2492 115.098 21.3121 115.159 20.3749C115.255 18.5007 115.398 16.6241 115.668 14.7499C115.943 16.6241 116.082 18.5007 116.178 20.3749C116.239 21.3121 116.252 22.2492 116.287 23.1887L116.322 26L116.287 28.8137C116.252 29.7508 116.239 30.6879 116.178 31.625C116.082 33.4993 115.938 35.3759 115.668 37.2501Z" fill="#191815"/>
<path d="M104.753 35.2181C104.483 33.6809 104.344 32.1462 104.248 30.609C104.187 29.8417 104.174 29.0743 104.139 28.3069L104.104 26.0024L104.135 23.6979C104.174 22.9305 104.183 22.1631 104.244 21.3957C104.34 19.8586 104.483 18.3238 104.753 16.7891C105.028 18.3238 105.189 19.8586 105.267 21.3957C105.328 22.1631 105.337 22.9305 105.376 23.6979L105.407 26.0024L105.372 28.3069C105.337 29.0743 105.324 29.8417 105.263 30.609C105.167 32.1438 105.028 33.6786 104.753 35.2181Z" fill="#191815"/>
<path d="M99.3004 35.2181C99.0304 33.6809 98.8649 32.1462 98.7908 30.609C98.7298 29.8417 98.7168 29.0743 98.6819 28.3069L98.6471 26.0024L98.6819 23.6979C98.7168 22.9305 98.7298 22.1631 98.7908 21.3957C98.8866 19.8586 99.026 18.3238 99.3004 16.7891C99.5705 18.3238 99.7142 19.8586 99.81 21.3957C99.871 22.1631 99.8797 22.9305 99.9189 23.6979L99.9537 26.0024L99.9145 28.3069C99.8797 29.0743 99.8666 29.8417 99.8056 30.609C99.7098 32.1438 99.5705 33.6786 99.3004 35.2181Z" fill="#191815"/>
<path d="M88.3986 35.2181C88.1285 33.6809 87.9891 32.1462 87.8933 30.609C87.8323 29.8417 87.8193 29.0743 87.7844 28.3069L87.7452 26.0024L87.7801 23.6979C87.8193 22.9305 87.828 22.1631 87.889 21.3957C87.9848 19.8586 88.1285 18.3238 88.3986 16.7891C88.673 18.3238 88.8341 19.8586 88.9125 21.3957C88.9691 22.1631 88.9822 22.9305 89.0214 23.6979L89.0519 26.0024L89.0171 28.3069C88.9822 29.0743 88.9692 29.8417 88.9082 30.609C88.8124 32.1438 88.673 33.6786 88.3986 35.2181Z" fill="#191815"/>
<path d="M80.2145 38.2876C79.9444 36.2389 79.8051 34.1925 79.7092 32.1438C79.6483 31.1206 79.6352 30.0951 79.6003 29.0719L79.5612 26L79.596 22.9281C79.6352 21.9049 79.6439 20.8818 79.7049 19.8562C79.8007 17.8099 79.9444 15.7611 80.2145 13.7124C80.4889 15.7611 80.6501 17.8099 80.7241 19.8562C80.7851 20.8818 80.7981 21.9049 80.833 22.9281L80.8678 26L80.833 29.0719C80.7981 30.0951 80.7851 31.1206 80.7241 32.1438C80.6283 34.1925 80.4976 36.2389 80.2145 38.2876Z" fill="#191815"/>
<path d="M77.4966 35.9855C77.2266 34.3121 77.0872 32.6578 76.987 30.9939C76.9304 30.1596 76.9173 29.3205 76.8781 28.4958L76.8433 26L76.8781 23.5042C76.913 22.6723 76.9261 21.8308 76.987 21.0085C77.0829 19.3351 77.2266 17.6784 77.4966 16.0145C77.771 17.6879 77.9322 19.3422 78.0063 21.0085C78.0672 21.8404 78.0803 22.6819 78.1152 23.5042L78.15 26L78.1152 28.4958C78.0803 29.3277 78.0672 30.1692 78.0063 30.9939C77.9104 32.6578 77.7667 34.3216 77.4966 35.9855Z" fill="#191815"/>
<path d="M74.7701 32.7845C74.5001 31.6537 74.3564 30.523 74.2606 29.3923C74.1996 28.8257 74.1865 28.2615 74.1517 27.6949L74.1168 26L74.1517 24.3051C74.1865 23.7385 74.1996 23.1743 74.2606 22.6078C74.3564 21.477 74.4958 20.3463 74.7701 19.2179C75.0402 20.3463 75.2057 21.477 75.2798 22.6078C75.3407 23.1743 75.3494 23.7385 75.3886 24.3051L75.4235 26L75.3843 27.6949C75.3494 28.2615 75.3364 28.8257 75.2754 29.3923C75.1796 30.523 75.0402 31.6537 74.7701 32.7845Z" fill="#191815"/>
<path d="M96.5695 40.0662C96.2994 37.7234 96.16 35.3783 96.0642 33.0331C96.0032 31.8617 95.9902 30.688 95.9553 29.5166L95.9161 26L95.951 22.4835C95.9902 21.3121 95.9989 20.1383 96.0599 18.9669C96.1557 16.6218 96.2994 14.279 96.5695 11.9338C96.8439 14.279 96.9832 16.6218 97.079 18.9669C97.14 20.1383 97.1531 21.3121 97.1879 22.4835L97.2228 26L97.1879 29.5166C97.1531 30.688 97.14 31.8617 97.079 33.0331C96.9832 35.3783 96.8395 37.7234 96.5695 40.0662Z" fill="#191815"/>
<path d="M91.1295 40.0662C90.8594 37.7234 90.6939 35.3783 90.6198 33.0331C90.5589 31.8617 90.5458 30.688 90.511 29.5166L90.4761 26L90.511 22.4835C90.5458 21.3121 90.5589 20.1383 90.6198 18.9669C90.7157 16.6218 90.8551 14.279 91.1295 11.9338C91.3995 14.279 91.5432 16.6218 91.639 18.9669C91.7 20.1383 91.7131 21.3121 91.7479 22.4835L91.7828 26L91.7479 29.5166C91.7087 30.688 91.6956 31.8617 91.6347 33.0331C91.5388 35.3783 91.3864 37.7234 91.1295 40.0662Z" fill="#191815"/>
<path d="M93.8473 43.554C93.5773 40.628 93.4117 37.7019 93.3377 34.7782C93.2811 33.3152 93.2636 31.8521 93.2288 30.3891L93.194 26L93.2288 21.6109C93.2636 20.1478 93.2767 18.6848 93.3377 17.2241C93.4335 14.2981 93.5773 11.372 93.8473 8.44592C94.1173 11.372 94.261 14.2981 94.3569 17.2241C94.4178 18.6848 94.4309 20.1478 94.4657 21.6109L94.5006 26L94.4657 30.3891C94.4309 31.8521 94.4135 33.3152 94.3569 34.7782C94.261 37.7019 94.1173 40.628 93.8473 43.554Z" fill="#191815"/>
<path d="M85.672 43.554C85.402 40.628 85.2364 37.7043 85.1624 34.7782C85.1058 33.3152 85.0927 31.8521 85.0535 30.3891L85.0187 26L85.0535 21.6109C85.0883 20.1478 85.1014 18.6848 85.1624 17.2241C85.2582 14.2981 85.402 11.372 85.672 8.44592C85.9464 11.372 86.0858 14.2981 86.1816 17.2241C86.2426 18.6848 86.2557 20.1478 86.2905 21.6109L86.3253 26L86.2905 30.3891C86.2557 31.8521 86.2426 33.3152 86.1816 34.7782C86.0858 37.7043 85.942 40.628 85.672 43.554Z" fill="#191815"/>
<path d="M167.495 38.2876C167.225 36.2389 167.085 34.1902 166.989 32.1438C166.928 31.1206 166.915 30.0951 166.88 29.0719L166.841 26L166.876 22.9281C166.915 21.9049 166.924 20.8818 166.985 19.8562C167.081 17.8099 167.225 15.7611 167.495 13.7124C167.769 15.7611 167.93 17.8099 168.004 19.8562C168.065 20.8818 168.078 21.9049 168.113 22.9281L168.148 26L168.113 29.0719C168.078 30.0951 168.065 31.1206 168.004 32.1438C167.908 34.1902 167.765 36.2389 167.495 38.2876Z" fill="#191815"/>
<path d="M151.135 40.0662C150.865 37.7234 150.726 35.3783 150.63 33.0331C150.569 31.8617 150.556 30.688 150.521 29.5166L150.482 26L150.517 22.4835C150.552 21.3121 150.565 20.1383 150.626 18.9669C150.722 16.6218 150.865 14.279 151.135 11.9338C151.41 14.279 151.571 16.6218 151.645 18.9669C151.706 20.1383 151.719 21.3121 151.754 22.4835L151.789 26L151.754 29.5166C151.719 30.688 151.706 31.8617 151.645 33.0331C151.549 35.3783 151.405 37.7234 151.135 40.0662Z" fill="#191815"/>
<path d="M156.584 40.0662C156.314 37.7234 156.148 35.3783 156.074 33.0331C156.013 31.8617 156 30.688 155.966 29.5166L155.931 26L155.966 22.4835C156 21.3121 156.013 20.1383 156.074 18.9669C156.17 16.6218 156.31 14.279 156.584 11.9338C156.854 14.279 156.998 16.6218 157.094 18.9669C157.155 20.1383 157.163 21.3121 157.203 22.4835L157.237 26L157.198 29.5166C157.163 30.688 157.15 31.8617 157.089 33.0331C156.993 35.3783 156.854 37.7234 156.584 40.0662Z" fill="#191815"/>
<path d="M142.951 35.2181C142.681 33.6809 142.538 32.1462 142.442 30.609C142.385 29.8417 142.368 29.0743 142.333 28.3069L142.298 26.0024L142.333 23.6979C142.368 22.9305 142.381 22.1631 142.442 21.3957C142.538 19.8586 142.681 18.3238 142.951 16.7891C143.221 18.3238 143.387 19.8586 143.461 21.3957C143.522 22.1631 143.535 22.9305 143.57 23.6979L143.605 26.0024L143.57 28.3069C143.535 29.0743 143.518 29.8417 143.461 30.609C143.365 32.1438 143.217 33.6786 142.951 35.2181Z" fill="#191815"/>
<path d="M148.409 35.2181C148.139 33.6809 147.973 32.1462 147.899 30.609C147.838 29.8417 147.825 29.0743 147.79 28.3069L147.755 26.0024L147.79 23.6979C147.825 22.9305 147.838 22.1631 147.899 21.3957C147.995 19.8586 148.134 18.3238 148.409 16.7891C148.679 18.3238 148.823 19.8586 148.918 21.3957C148.979 22.1631 148.992 22.9305 149.027 23.6979L149.062 26.0024L149.023 28.3069C148.988 29.0743 148.975 29.8417 148.914 30.609C148.818 32.1438 148.679 33.6786 148.409 35.2181Z" fill="#191815"/>
<path d="M159.332 35.2181C159.062 33.6809 158.923 32.1462 158.827 30.609C158.766 29.8417 158.753 29.0743 158.714 28.3069L158.679 26.0024L158.714 23.6979C158.749 22.9305 158.762 22.1631 158.823 21.3957C158.919 19.8586 159.062 18.3238 159.332 16.7891C159.607 18.3238 159.768 19.8586 159.842 21.3957C159.903 22.1631 159.916 22.9305 159.951 23.6979L159.986 26.0024L159.951 28.3069C159.916 29.0743 159.903 29.8417 159.842 30.609C159.724 32.1438 159.581 33.6786 159.332 35.2181Z" fill="#191815"/>
<path d="M170.221 35.9855C169.947 34.3121 169.807 32.6578 169.712 30.9939C169.651 30.1596 169.638 29.3205 169.603 28.4958L169.568 26L169.598 23.5042C169.638 22.6723 169.646 21.8308 169.707 21.0085C169.803 19.3351 169.947 17.6784 170.221 16.0145C170.491 17.6879 170.657 19.3422 170.731 21.0085C170.792 21.8404 170.8 22.6819 170.84 23.5042L170.87 26L170.835 28.4958C170.8 29.3277 170.787 30.1692 170.726 30.9939C170.626 32.6578 170.487 34.3216 170.221 35.9855Z" fill="#191815"/>
<path d="M172.943 32.7845C172.673 31.6537 172.53 30.523 172.434 29.3923C172.373 28.8257 172.36 28.2615 172.325 27.6949L172.29 26L172.325 24.3051C172.36 23.7385 172.373 23.1743 172.434 22.6078C172.53 21.477 172.669 20.3463 172.943 19.2179C173.213 20.3463 173.357 21.477 173.453 22.6078C173.514 23.1743 173.527 23.7385 173.562 24.3051L173.597 26L173.562 27.6949C173.523 28.2615 173.509 28.8257 173.453 29.3923C173.357 30.523 173.213 31.6537 172.943 32.7845Z" fill="#191815"/>
</g>
<defs>
<clipPath id="clip0_227_89">
<rect width="244" height="52" fill="white" transform="translate(0.5)"/>
</clipPath>
</defs>
</svg>
